<svg width="512" height="512" viewBox="0 0 512 512" fill="none" xmlns="http://www.w3.org/2000/svg">
<rect width="512" height="512" fill="#FFFCF6"/>
<path d="M249.292 429.846C252.049 435.385 259.951 435.385 262.708 429.846L303.7 347.495C313.145 328.521 328.521 313.145 347.495 303.7L429.846 262.708C435.385 259.951 435.385 252.049 429.846 249.292L347.495 208.3C328.521 198.855 313.145 183.479 303.7 164.505L262.708 82.1539C259.951 76.6153 252.049 76.6153 249.292 82.1539L208.3 164.505C198.856 183.479 183.479 198.855 164.505 208.3L82.1539 249.292C76.6154 252.049 76.6154 259.951 82.1539 262.708L164.505 303.7C183.479 313.144 198.855 328.521 208.3 347.495L249.292 429.846Z" fill="#CE8484"/>
</svg>
