<svg width="356" height="356" viewBox="0 0 356 356" fill="none" xmlns="http://www.w3.org/2000/svg">
<path d="M171.292 351.846C174.049 357.385 181.951 357.385 184.708 351.846L225.7 269.495C235.145 250.521 250.521 235.145 269.495 225.7L351.846 184.708C357.385 181.951 357.385 174.049 351.846 171.292L269.495 130.3C250.521 120.855 235.145 105.479 225.7 86.5051L184.708 4.15392C181.951 -1.38466 174.049 -1.38466 171.292 4.15392L130.3 86.5051C120.856 105.479 105.479 120.855 86.5051 130.3L4.15394 171.292C-1.38464 174.049 -1.38465 181.951 4.15393 184.708L86.5051 225.7C105.479 235.144 120.855 250.521 130.3 269.495L171.292 351.846Z" fill="#CE8484"/>
</svg>
